<?xml version="1.0" encoding="utf-8"?>
<!-- Generator: Adobe Illustrator 24.0.1, SVG Export Plug-In . SVG Version: 6.00 Build 0)  -->
<svg version="1.1" id="图层_1" xmlns="http://www.w3.org/2000/svg" xmlns:xlink="http://www.w3.org/1999/xlink" x="0px" y="0px"
	 viewBox="0 0 200 200" style="enable-background:new 0 0 200 200;" xml:space="preserve">
<style type="text/css">
	.st0{fill:#F9B4BA;}
	.st1{fill:#ED3747;}
	.st2{fill:none;stroke:#E91224;stroke-width:14;stroke-linecap:round;stroke-miterlimit:10;}
	.st3{display:none;}
	.st4{display:inline;}
</style>
<circle class="st0" cx="100" cy="100" r="100"/>
<g>
	<g>
		<path class="st1" d="M100,0C44.8,0,0,44.8,0,100c0,55.2,44.8,100,100,100s100-44.8,100-100C200,44.8,155.2,0,100,0z M100,184
			c-46.4,0-84-37.6-84-84s37.6-84,84-84s84,37.6,84,84S146.4,184,100,184z"/>
	</g>
</g>
<g>
	<line class="st2" x1="61" y1="61" x2="139" y2="139"/>
	<line class="st2" x1="61" y1="139" x2="139" y2="61"/>
</g>
<g class="st3">
	<defs>
		<ellipse id="SVGID_1_" cx="414.9" cy="271.5" rx="920.9" ry="607.4"/>
	</defs>
	<clipPath id="SVGID_2_" class="st4">
		<use xlink:href="#SVGID_1_"  style="overflow:visible;"/>
	</clipPath>
	<g style="display:inline;clip-path:url(#SVGID_2_);">
		
			<image style="overflow:visible;" width="1251" height="448" xlink:href="../微信截图_20230423175059.png"  transform="matrix(7.0324 0 0 7.0324 -3755.7771 -700.0277)">
		</image>
	</g>
</g>
</svg>
